<svg xmlns="http://www.w3.org/2000/svg" width="50" height="50" viewBox="0 0 50 50">
    <path fill="none" fill-rule="evenodd" stroke="#FFF" stroke-width="2" d="M22.391 30.222c.41 0 .742.333.742.743v4.455c0 .41-.332.743-.742.743h-7.648A.743.743 0 0 1 14 35.42v-4.455c0-.41.333-.743.743-.743h7.648zm12.866-5.799c.41 0 .743.333.743.743V35.42c0 .41-.333.743-.743.743H27.61a.742.742 0 0 1-.742-.743V25.166c0-.41.332-.743.742-.743h7.648zM22.391 14c.41 0 .742.333.742.743v10.254c0 .41-.332.743-.742.743h-7.648a.743.743 0 0 1-.743-.743V14.743c0-.41.333-.743.743-.743h7.648zm12.866 0c.41 0 .743.333.743.743v4.455c0 .41-.333.743-.743.743H27.61a.742.742 0 0 1-.742-.743v-4.455c0-.41.332-.743.742-.743h7.648z"/>
</svg>
